#!OML:ASF H:\Terrain\Patient Classification 1\Takeo\Monday\TakeoMonday.ASF
:FULLY-SPECIFIED
:DEGREES
774
root 9.27711 17.3997 -3.54468 -10.1125 -23.5709 1.4988
lowerback 4.74101 0.884159 -0.450372
upperback 3.95289 1.14617 -0.375786
thorax 1.40218 0.560458 -0.172483
lowerneck -4.29859 5.31256 -4.84191
upperneck -14.0081 7.30569 1.81368
head -4.13275 3.75787 1.27188
rclavicle 1.86625e-014 -4.72114e-015
rhumerus 45.7146 32.6477 -76.308
rradius 58.5339
rwrist -27.4254
rhand -50.9532 34.6903
rfingers 7.12502
rthumb -23.5037 6.10618
lclavicle 1.86625e-014 -4.72114e-015
lhumerus 65.8069 -24.7324 54.6847
lradius 69.1167
lwrist 29.2976
lhand -42.624 28.6872
lfingers 7.12502
lthumb -15.4963 58.0861
rfemur 10.3854 -1.39819 21.5257
rtibia 22.4643
rfoot -21.4382 -16.2407
rtoes -5.53206
lfemur -13.234 4.81793 -15.274
ltibia 29.583
lfoot -2.1327 17.1378
ltoes -1.37316
775
root 9.2721 17.3855 -3.55007 -10.472 -23.9908 1.76856
lowerback 4.88458 0.825162 -0.914955
upperback 3.72394 1.04841 -0.0834541
thorax 1.07278 0.500314 0.386588
lowerneck -4.28903 5.20069 -4.58183
upperneck -13.6521 7.0738 1.15236
head -3.94926 3.65004 1.01706
rclavicle 2.11131e-014 1.09332e-015
rhumerus 46.007 32.5688 -75.4648
rradius 58.6148
rwrist -27.8078
rhand -51.1842 36.3123
rfingers 7.12502
rthumb -23.7253 7.75672
lclavicle 2.11131e-014 1.09332e-015
lhumerus 66.1721 -24.8115 54.9735
lradius 69.1431
lwrist 28.8526
lhand -42.8754 28.7293
lfingers 7.12502
lthumb -15.7384 58.1094
rfemur 10.6106 -1.13462 21.3161
rtibia 22.4732
rfoot -21.3675 -16.2326
rtoes -6.12698
lfemur -12.959 5.08441 -15.3657
ltibia 29.8697
lfoot -1.64435 16.4553
ltoes -7.4889
776
root 9.26455 17.3827 -3.5493 -10.7389 -24.4224 1.94769
lowerback 4.96605 0.837475 -1.30208
upperback 3.33472 1.04892 0.327841
thorax 0.61284 0.494924 1.0205
lowerneck -3.79736 4.94393 -4.58171
upperneck -13.5657 6.61132 0.298099
head -3.9541 3.44782 0.734784
rclavicle 1.43995e-014 1.19271e-015
rhumerus 45.9521 32.5554 -74.2821
rradius 58.8282
rwrist -28.5337
rhand -51.483 38.3878
rfingers 7.12502
rthumb -24.0119 9.86972
lclavicle 1.43995e-014 1.19271e-015
lhumerus 66.2044 -25.0294 55.5149
lradius 69.3286
lwrist 28.6392
lhand -42.9023 28.5766
lfingers 7.12502
lthumb -15.7643 57.9547
rfemur 10.7332 -0.923234 21.1798
rtibia 22.5735
rfoot -21.3287 -16.2497
rtoes -6.7095
lfemur -12.645 5.01698 -15.3182
ltibia 30.0699
lfoot -0.615509 15.8606
ltoes -12.3189
777
root 9.25368 17.3927 -3.54641 -10.8283 -24.9678 1.78492
lowerback 4.62503 0.905576 -0.76322
upperback 3.41859 1.16354 0.163693
thorax 0.899181 0.560667 0.55175
lowerneck -5.32033 4.79036 -3.4237
upperneck -11.8773 6.45522 0.292984
head -3.02345 3.30929 0.604389
rclavicle 1.57444e-014 2.38542e-015
rhumerus 46.3218 31.5907 -74.2038
rradius 58.9518
rwrist -29.1011
rhand -51.4439 39.135
rfingers 7.12502
rthumb -23.9743 10.612
lclavicle 1.57444e-014 2.38542e-015
lhumerus 67.2925 -25.2612 54.663
lradius 69.6682
lwrist 28.4952
lhand -42.821 28.7236
lfingers 7.12502
lthumb -15.686 58.1078
rfemur 10.7484 -0.740575 21.3869
rtibia 22.777
rfoot -21.474 -16.0289
rtoes -7.47345
lfemur -12.359 4.70726 -14.8848
ltibia 30.1895
lfoot -0.628836 16.1357
ltoes -10.5822
778
root 9.24758 17.3909 -3.5437 -10.9549 -25.4769 1.86006
lowerback 4.18523 0.665207 -0.719272
upperback 3.33072 0.848344 0.249388
thorax 1.05794 0.402673 0.631601
lowerneck -6.36517 4.87464 -3.29469
upperneck -10.7052 6.56118 -0.167944
head -2.41997 3.35873 0.479171
rclavicle 3.40854e-014 -2.78299e-015
rhumerus 46.6432 31.6257 -74.3851
rradius 59.0958
rwrist -28.8562
rhand -51.6133 41.0335
rfingers 7.12502
rthumb -24.1367 12.5319
lclavicle 3.40854e-014 -2.78299e-015
lhumerus 67.4123 -24.9496 54.5678
lradius 69.7166
lwrist 27.9333
lhand -42.801 28.2879
lfingers 7.12502
lthumb -15.6667 57.6736
rfemur 10.7834 -0.70285 21.27
rtibia 22.8461
rfoot -21.4592 -15.5297
rtoes -7.78591
lfemur -12.0408 4.2763 -14.6714
ltibia 30.3093
lfoot -1.71957 16.4759
ltoes -6.55073
